<svg xmlns="http://www.w3.org/2000/svg" width="640" height="480">
 <!-- Created with Method Draw - http://github.com/duopixel/Method-Draw/ --><defs><pattern patternUnits="userSpaceOnUse" height="20" width="20" id="hatch_black"><g stroke="#000000"><line y2="5" x2="0" y1="0" x1="5"/><line y2="10" x2="0" y1="0" x1="10"/><line y2="15" x2="0" y1="0" x1="15"/><line y2="20" x2="0" y1="0" x1="20"/><line y2="20" x2="5" y1="5" x1="20"/><line y2="20" x2="10" y1="10" x1="20"/><line y2="20" x2="15" y1="15" x1="20"/></g></pattern><pattern patternUnits="userSpaceOnUse" height="20" width="20" id="hatch_white"><g stroke="#FFFFFF"><line y2="5" x2="0" y1="0" x1="5"/><line y2="10" x2="0" y1="0" x1="10"/><line y2="15" x2="0" y1="0" x1="15"/><line y2="20" x2="0" y1="0" x1="20"/><line y2="20" x2="5" y1="5" x1="20"/><line y2="20" x2="10" y1="10" x1="20"/><line y2="20" x2="15" y1="15" x1="20"/></g></pattern><pattern patternUnits="userSpaceOnUse" height="20" width="20" id="hatch_red"><g stroke="#FF0000"><line y2="5" x2="0" y1="0" x1="5"/><line y2="10" x2="0" y1="0" x1="10"/><line y2="15" x2="0" y1="0" x1="15"/><line y2="20" x2="0" y1="0" x1="20"/><line y2="20" x2="5" y1="5" x1="20"/><line y2="20" x2="10" y1="10" x1="20"/><line y2="20" x2="15" y1="15" x1="20"/></g></pattern><pattern patternUnits="userSpaceOnUse" height="20" width="20" id="hatch_green"><g stroke="#00FF00"><line y2="5" x2="0" y1="0" x1="5"/><line y2="10" x2="0" y1="0" x1="10"/><line y2="15" x2="0" y1="0" x1="15"/><line y2="20" x2="0" y1="0" x1="20"/><line y2="20" x2="5" y1="5" x1="20"/><line y2="20" x2="10" y1="10" x1="20"/><line y2="20" x2="15" y1="15" x1="20"/></g></pattern><pattern patternUnits="userSpaceOnUse" height="20" width="20" id="hatch_blue"><g stroke="#0000FF"><line y2="5" x2="0" y1="0" x1="5"/><line y2="10" x2="0" y1="0" x1="10"/><line y2="15" x2="0" y1="0" x1="15"/><line y2="20" x2="0" y1="0" x1="20"/><line y2="20" x2="5" y1="5" x1="20"/><line y2="20" x2="10" y1="10" x1="20"/><line y2="20" x2="15" y1="15" x1="20"/></g></pattern><pattern patternUnits="userSpaceOnUse" height="20" width="20" id="hatch_yellow"><g stroke="#FFFF00"><line y2="5" x2="0" y1="0" x1="5"/><line y2="10" x2="0" y1="0" x1="10"/><line y2="15" x2="0" y1="0" x1="15"/><line y2="20" x2="0" y1="0" x1="20"/><line y2="20" x2="5" y1="5" x1="20"/><line y2="20" x2="10" y1="10" x1="20"/><line y2="20" x2="15" y1="15" x1="20"/></g></pattern><pattern patternUnits="userSpaceOnUse" height="20" width="20" id="hatch_brown"><g stroke="#A52A2A"><line y2="5" x2="0" y1="0" x1="5"/><line y2="10" x2="0" y1="0" x1="10"/><line y2="15" x2="0" y1="0" x1="15"/><line y2="20" x2="0" y1="0" x1="20"/><line y2="20" x2="5" y1="5" x1="20"/><line y2="20" x2="10" y1="10" x1="20"/><line y2="20" x2="15" y1="15" x1="20"/></g></pattern><pattern height="100" width="100" y="0" x="0" patternUnits="userSpaceOnUse" id="gridpattern"><image height="100" width="100" y="0" x="0"/></pattern></defs><g><title>background</title><rect fill="#fff" id="canvas_background" height="482" width="642" y="-1" x="-1"/><g display="none" overflow="visible" y="0" x="0" height="100%" width="100%" id="canvasGrid"><rect fill="url(#gridpattern)" stroke-width="0" y="0" x="0" height="100%" width="100%"/></g></g><g><title>Layer 1</title><path data-shape="fhpath" d="m81.5,161c3,2 6.837059,6.252869 13,14c5.873138,7.382828 15.458687,19.614365 29,31c16.38028,13.772659 39.098206,30.027878 71,43c20.505524,8.338104 54.897232,16.013184 94,17c38.001068,0.959015 82.478027,-5.672272 108,-19c24.835449,-12.969208 35.924286,-31.9944 35,-45c-1.307129,-18.3927 -15.348633,-39.149719 -33,-51c-16.708466,-11.217255 -30.9552,-14.110443 -42,-14c-9.054932,0.090546 -18.016144,2.985672 -26,12c-10.483307,11.836395 -19.542694,30.590088 -26,58c-7.91684,33.605408 -6.776733,68.798523 6,108c12.371979,37.959625 35,64 60,85l21,9l30,9l28,1" id="svg_1" stroke-width="1.5" stroke="#000" fill="none"/></g></svg>