<svg xmlns="http://www.w3.org/2000/svg" width="640" height="480">
 <!-- Created with Method Draw - http://github.com/duopixel/Method-Draw/ --><defs><pattern patternUnits="userSpaceOnUse" height="20" width="20" id="hatch_black"><g stroke="#000000"><line y2="5" x2="0" y1="0" x1="5"/><line y2="10" x2="0" y1="0" x1="10"/><line y2="15" x2="0" y1="0" x1="15"/><line y2="20" x2="0" y1="0" x1="20"/><line y2="20" x2="5" y1="5" x1="20"/><line y2="20" x2="10" y1="10" x1="20"/><line y2="20" x2="15" y1="15" x1="20"/></g></pattern><pattern patternUnits="userSpaceOnUse" height="20" width="20" id="hatch_white"><g stroke="#FFFFFF"><line y2="5" x2="0" y1="0" x1="5"/><line y2="10" x2="0" y1="0" x1="10"/><line y2="15" x2="0" y1="0" x1="15"/><line y2="20" x2="0" y1="0" x1="20"/><line y2="20" x2="5" y1="5" x1="20"/><line y2="20" x2="10" y1="10" x1="20"/><line y2="20" x2="15" y1="15" x1="20"/></g></pattern><pattern patternUnits="userSpaceOnUse" height="20" width="20" id="hatch_red"><g stroke="#FF0000"><line y2="5" x2="0" y1="0" x1="5"/><line y2="10" x2="0" y1="0" x1="10"/><line y2="15" x2="0" y1="0" x1="15"/><line y2="20" x2="0" y1="0" x1="20"/><line y2="20" x2="5" y1="5" x1="20"/><line y2="20" x2="10" y1="10" x1="20"/><line y2="20" x2="15" y1="15" x1="20"/></g></pattern><pattern patternUnits="userSpaceOnUse" height="20" width="20" id="hatch_green"><g stroke="#00FF00"><line y2="5" x2="0" y1="0" x1="5"/><line y2="10" x2="0" y1="0" x1="10"/><line y2="15" x2="0" y1="0" x1="15"/><line y2="20" x2="0" y1="0" x1="20"/><line y2="20" x2="5" y1="5" x1="20"/><line y2="20" x2="10" y1="10" x1="20"/><line y2="20" x2="15" y1="15" x1="20"/></g></pattern><pattern patternUnits="userSpaceOnUse" height="20" width="20" id="hatch_blue"><g stroke="#0000FF"><line y2="5" x2="0" y1="0" x1="5"/><line y2="10" x2="0" y1="0" x1="10"/><line y2="15" x2="0" y1="0" x1="15"/><line y2="20" x2="0" y1="0" x1="20"/><line y2="20" x2="5" y1="5" x1="20"/><line y2="20" x2="10" y1="10" x1="20"/><line y2="20" x2="15" y1="15" x1="20"/></g></pattern><pattern patternUnits="userSpaceOnUse" height="20" width="20" id="hatch_yellow"><g stroke="#FFFF00"><line y2="5" x2="0" y1="0" x1="5"/><line y2="10" x2="0" y1="0" x1="10"/><line y2="15" x2="0" y1="0" x1="15"/><line y2="20" x2="0" y1="0" x1="20"/><line y2="20" x2="5" y1="5" x1="20"/><line y2="20" x2="10" y1="10" x1="20"/><line y2="20" x2="15" y1="15" x1="20"/></g></pattern><pattern patternUnits="userSpaceOnUse" height="20" width="20" id="hatch_brown"><g stroke="#A52A2A"><line y2="5" x2="0" y1="0" x1="5"/><line y2="10" x2="0" y1="0" x1="10"/><line y2="15" x2="0" y1="0" x1="15"/><line y2="20" x2="0" y1="0" x1="20"/><line y2="20" x2="5" y1="5" x1="20"/><line y2="20" x2="10" y1="10" x1="20"/><line y2="20" x2="15" y1="15" x1="20"/></g></pattern><pattern height="100" width="100" y="0" x="0" patternUnits="userSpaceOnUse" id="gridpattern"><image height="100" width="100" y="0" x="0"/></pattern></defs><g><title>background</title><rect fill="#fff" id="canvas_background" height="482" width="642" y="-1" x="-1"/><g display="none" overflow="visible" y="0" x="0" height="100%" width="100%" id="canvasGrid"><rect fill="url(#gridpattern)" stroke-width="0" y="0" x="0" height="100%" width="100%"/></g></g><g><title>Layer 1</title><path data-shape="fhpath" d="m118.5,164c11,13 22.081894,32.610794 40,52c17.303436,18.724075 43.557159,37.929871 68,49c26.557968,12.028076 56.13443,16.58905 81,14c38.624176,-4.021637 77.616058,-20.64624 96,-35c12.261597,-9.573563 12.777924,-20.456787 9,-26c-7.576843,-11.117172 -32.56839,-23.9841 -65,-30c-48.537994,-9.003571 -89.444855,-8.379227 -105,9c-17.607239,19.671951 -15.431839,55.544418 -9,85c7.893234,36.148254 29,60 61,85l36,15l37,5" id="svg_1" stroke-width="1.5" stroke="#000" fill="none"/></g></svg>