<svg xmlns="http://www.w3.org/2000/svg" width="640" height="480">
 <!-- Created with Method Draw - http://github.com/duopixel/Method-Draw/ --><defs><pattern patternUnits="userSpaceOnUse" height="20" width="20" id="hatch_black"><g stroke="#000000"><line y2="5" x2="0" y1="0" x1="5"/><line y2="10" x2="0" y1="0" x1="10"/><line y2="15" x2="0" y1="0" x1="15"/><line y2="20" x2="0" y1="0" x1="20"/><line y2="20" x2="5" y1="5" x1="20"/><line y2="20" x2="10" y1="10" x1="20"/><line y2="20" x2="15" y1="15" x1="20"/></g></pattern><pattern patternUnits="userSpaceOnUse" height="20" width="20" id="hatch_white"><g stroke="#FFFFFF"><line y2="5" x2="0" y1="0" x1="5"/><line y2="10" x2="0" y1="0" x1="10"/><line y2="15" x2="0" y1="0" x1="15"/><line y2="20" x2="0" y1="0" x1="20"/><line y2="20" x2="5" y1="5" x1="20"/><line y2="20" x2="10" y1="10" x1="20"/><line y2="20" x2="15" y1="15" x1="20"/></g></pattern><pattern patternUnits="userSpaceOnUse" height="20" width="20" id="hatch_red"><g stroke="#FF0000"><line y2="5" x2="0" y1="0" x1="5"/><line y2="10" x2="0" y1="0" x1="10"/><line y2="15" x2="0" y1="0" x1="15"/><line y2="20" x2="0" y1="0" x1="20"/><line y2="20" x2="5" y1="5" x1="20"/><line y2="20" x2="10" y1="10" x1="20"/><line y2="20" x2="15" y1="15" x1="20"/></g></pattern><pattern patternUnits="userSpaceOnUse" height="20" width="20" id="hatch_green"><g stroke="#00FF00"><line y2="5" x2="0" y1="0" x1="5"/><line y2="10" x2="0" y1="0" x1="10"/><line y2="15" x2="0" y1="0" x1="15"/><line y2="20" x2="0" y1="0" x1="20"/><line y2="20" x2="5" y1="5" x1="20"/><line y2="20" x2="10" y1="10" x1="20"/><line y2="20" x2="15" y1="15" x1="20"/></g></pattern><pattern patternUnits="userSpaceOnUse" height="20" width="20" id="hatch_blue"><g stroke="#0000FF"><line y2="5" x2="0" y1="0" x1="5"/><line y2="10" x2="0" y1="0" x1="10"/><line y2="15" x2="0" y1="0" x1="15"/><line y2="20" x2="0" y1="0" x1="20"/><line y2="20" x2="5" y1="5" x1="20"/><line y2="20" x2="10" y1="10" x1="20"/><line y2="20" x2="15" y1="15" x1="20"/></g></pattern><pattern patternUnits="userSpaceOnUse" height="20" width="20" id="hatch_yellow"><g stroke="#FFFF00"><line y2="5" x2="0" y1="0" x1="5"/><line y2="10" x2="0" y1="0" x1="10"/><line y2="15" x2="0" y1="0" x1="15"/><line y2="20" x2="0" y1="0" x1="20"/><line y2="20" x2="5" y1="5" x1="20"/><line y2="20" x2="10" y1="10" x1="20"/><line y2="20" x2="15" y1="15" x1="20"/></g></pattern><pattern patternUnits="userSpaceOnUse" height="20" width="20" id="hatch_brown"><g stroke="#A52A2A"><line y2="5" x2="0" y1="0" x1="5"/><line y2="10" x2="0" y1="0" x1="10"/><line y2="15" x2="0" y1="0" x1="15"/><line y2="20" x2="0" y1="0" x1="20"/><line y2="20" x2="5" y1="5" x1="20"/><line y2="20" x2="10" y1="10" x1="20"/><line y2="20" x2="15" y1="15" x1="20"/></g></pattern><pattern height="100" width="100" y="0" x="0" patternUnits="userSpaceOnUse" id="gridpattern"><image height="100" width="100" y="0" x="0"/></pattern></defs><g><title>background</title><rect fill="#fff" id="canvas_background" height="482" width="642" y="-1" x="-1"/><g display="none" overflow="visible" y="0" x="0" height="100%" width="100%" id="canvasGrid"><rect fill="url(#gridpattern)" stroke-width="0" y="0" x="0" height="100%" width="100%"/></g></g><g><title>Layer 1</title><path data-shape="fhpath" d="m166.5,159c10,9 32.532608,27.667633 68,52c40.481079,27.771988 81.080231,55.259277 135,77c31.093719,12.53714 57.487976,15.38623 75,7c12.818634,-6.138641 22.177185,-28.775177 16,-53c-6.191986,-24.282898 -34.365906,-50.640411 -69,-64c-28.967957,-11.17395 -70.972473,-16.07489 -90,-3c-10.554565,7.25264 -14.497101,25.85997 -16,50c-1.180603,18.963287 0.555817,58.337158 28,97c24.571381,34.615692 72,62 108,81l36,10" id="svg_1" stroke-width="1.5" stroke="#000" fill="none"/></g></svg>