<svg xmlns="http://www.w3.org/2000/svg" width="640" height="480">
 <!-- Created with Method Draw - http://github.com/duopixel/Method-Draw/ --><defs><pattern patternUnits="userSpaceOnUse" height="20" width="20" id="hatch_black"><g stroke="#000000"><line y2="5" x2="0" y1="0" x1="5"/><line y2="10" x2="0" y1="0" x1="10"/><line y2="15" x2="0" y1="0" x1="15"/><line y2="20" x2="0" y1="0" x1="20"/><line y2="20" x2="5" y1="5" x1="20"/><line y2="20" x2="10" y1="10" x1="20"/><line y2="20" x2="15" y1="15" x1="20"/></g></pattern><pattern patternUnits="userSpaceOnUse" height="20" width="20" id="hatch_white"><g stroke="#FFFFFF"><line y2="5" x2="0" y1="0" x1="5"/><line y2="10" x2="0" y1="0" x1="10"/><line y2="15" x2="0" y1="0" x1="15"/><line y2="20" x2="0" y1="0" x1="20"/><line y2="20" x2="5" y1="5" x1="20"/><line y2="20" x2="10" y1="10" x1="20"/><line y2="20" x2="15" y1="15" x1="20"/></g></pattern><pattern patternUnits="userSpaceOnUse" height="20" width="20" id="hatch_red"><g stroke="#FF0000"><line y2="5" x2="0" y1="0" x1="5"/><line y2="10" x2="0" y1="0" x1="10"/><line y2="15" x2="0" y1="0" x1="15"/><line y2="20" x2="0" y1="0" x1="20"/><line y2="20" x2="5" y1="5" x1="20"/><line y2="20" x2="10" y1="10" x1="20"/><line y2="20" x2="15" y1="15" x1="20"/></g></pattern><pattern patternUnits="userSpaceOnUse" height="20" width="20" id="hatch_green"><g stroke="#00FF00"><line y2="5" x2="0" y1="0" x1="5"/><line y2="10" x2="0" y1="0" x1="10"/><line y2="15" x2="0" y1="0" x1="15"/><line y2="20" x2="0" y1="0" x1="20"/><line y2="20" x2="5" y1="5" x1="20"/><line y2="20" x2="10" y1="10" x1="20"/><line y2="20" x2="15" y1="15" x1="20"/></g></pattern><pattern patternUnits="userSpaceOnUse" height="20" width="20" id="hatch_blue"><g stroke="#0000FF"><line y2="5" x2="0" y1="0" x1="5"/><line y2="10" x2="0" y1="0" x1="10"/><line y2="15" x2="0" y1="0" x1="15"/><line y2="20" x2="0" y1="0" x1="20"/><line y2="20" x2="5" y1="5" x1="20"/><line y2="20" x2="10" y1="10" x1="20"/><line y2="20" x2="15" y1="15" x1="20"/></g></pattern><pattern patternUnits="userSpaceOnUse" height="20" width="20" id="hatch_yellow"><g stroke="#FFFF00"><line y2="5" x2="0" y1="0" x1="5"/><line y2="10" x2="0" y1="0" x1="10"/><line y2="15" x2="0" y1="0" x1="15"/><line y2="20" x2="0" y1="0" x1="20"/><line y2="20" x2="5" y1="5" x1="20"/><line y2="20" x2="10" y1="10" x1="20"/><line y2="20" x2="15" y1="15" x1="20"/></g></pattern><pattern patternUnits="userSpaceOnUse" height="20" width="20" id="hatch_brown"><g stroke="#A52A2A"><line y2="5" x2="0" y1="0" x1="5"/><line y2="10" x2="0" y1="0" x1="10"/><line y2="15" x2="0" y1="0" x1="15"/><line y2="20" x2="0" y1="0" x1="20"/><line y2="20" x2="5" y1="5" x1="20"/><line y2="20" x2="10" y1="10" x1="20"/><line y2="20" x2="15" y1="15" x1="20"/></g></pattern><pattern height="100" width="100" y="0" x="0" patternUnits="userSpaceOnUse" id="gridpattern"><image height="100" width="100" y="0" x="0"/></pattern></defs><g><title>background</title><rect fill="#fff" id="canvas_background" height="482" width="642" y="-1" x="-1"/><g display="none" overflow="visible" y="0" x="0" height="100%" width="100%" id="canvasGrid"><rect fill="url(#gridpattern)" stroke-width="0" y="0" x="0" height="100%" width="100%"/></g></g><g><title>Layer 1</title><path data-shape="fhpath" d="m143.5,229c5,8 12.761871,20.155975 22,34c8.776352,13.152039 21.212845,30.098022 32,37c16.951675,10.846222 39.101776,15.161346 62,13c21.282959,-2.008881 57.300568,-15.018677 84,-38c16.622192,-14.307434 23.054138,-35.337189 20,-49c-4.098724,-18.33577 -22.282104,-33.705872 -42,-41c-21.387054,-7.911591 -41.207214,-6.607468 -47,-1c-10.967529,10.616653 -13.591827,33.306763 -9,61c6.427551,38.764496 20.757538,72.118011 50,98c27.625366,24.450745 54,26 82,27l22,-1l16,-4l13,-6" id="svg_1" stroke-width="1.5" stroke="#000" fill="none"/></g></svg>