<svg xmlns="http://www.w3.org/2000/svg" width="640" height="480">
 <!-- Created with Method Draw - http://github.com/duopixel/Method-Draw/ --><defs><pattern patternUnits="userSpaceOnUse" height="20" width="20" id="hatch_black"><g stroke="#000000"><line y2="5" x2="0" y1="0" x1="5"/><line y2="10" x2="0" y1="0" x1="10"/><line y2="15" x2="0" y1="0" x1="15"/><line y2="20" x2="0" y1="0" x1="20"/><line y2="20" x2="5" y1="5" x1="20"/><line y2="20" x2="10" y1="10" x1="20"/><line y2="20" x2="15" y1="15" x1="20"/></g></pattern><pattern patternUnits="userSpaceOnUse" height="20" width="20" id="hatch_white"><g stroke="#FFFFFF"><line y2="5" x2="0" y1="0" x1="5"/><line y2="10" x2="0" y1="0" x1="10"/><line y2="15" x2="0" y1="0" x1="15"/><line y2="20" x2="0" y1="0" x1="20"/><line y2="20" x2="5" y1="5" x1="20"/><line y2="20" x2="10" y1="10" x1="20"/><line y2="20" x2="15" y1="15" x1="20"/></g></pattern><pattern patternUnits="userSpaceOnUse" height="20" width="20" id="hatch_red"><g stroke="#FF0000"><line y2="5" x2="0" y1="0" x1="5"/><line y2="10" x2="0" y1="0" x1="10"/><line y2="15" x2="0" y1="0" x1="15"/><line y2="20" x2="0" y1="0" x1="20"/><line y2="20" x2="5" y1="5" x1="20"/><line y2="20" x2="10" y1="10" x1="20"/><line y2="20" x2="15" y1="15" x1="20"/></g></pattern><pattern patternUnits="userSpaceOnUse" height="20" width="20" id="hatch_green"><g stroke="#00FF00"><line y2="5" x2="0" y1="0" x1="5"/><line y2="10" x2="0" y1="0" x1="10"/><line y2="15" x2="0" y1="0" x1="15"/><line y2="20" x2="0" y1="0" x1="20"/><line y2="20" x2="5" y1="5" x1="20"/><line y2="20" x2="10" y1="10" x1="20"/><line y2="20" x2="15" y1="15" x1="20"/></g></pattern><pattern patternUnits="userSpaceOnUse" height="20" width="20" id="hatch_blue"><g stroke="#0000FF"><line y2="5" x2="0" y1="0" x1="5"/><line y2="10" x2="0" y1="0" x1="10"/><line y2="15" x2="0" y1="0" x1="15"/><line y2="20" x2="0" y1="0" x1="20"/><line y2="20" x2="5" y1="5" x1="20"/><line y2="20" x2="10" y1="10" x1="20"/><line y2="20" x2="15" y1="15" x1="20"/></g></pattern><pattern patternUnits="userSpaceOnUse" height="20" width="20" id="hatch_yellow"><g stroke="#FFFF00"><line y2="5" x2="0" y1="0" x1="5"/><line y2="10" x2="0" y1="0" x1="10"/><line y2="15" x2="0" y1="0" x1="15"/><line y2="20" x2="0" y1="0" x1="20"/><line y2="20" x2="5" y1="5" x1="20"/><line y2="20" x2="10" y1="10" x1="20"/><line y2="20" x2="15" y1="15" x1="20"/></g></pattern><pattern patternUnits="userSpaceOnUse" height="20" width="20" id="hatch_brown"><g stroke="#A52A2A"><line y2="5" x2="0" y1="0" x1="5"/><line y2="10" x2="0" y1="0" x1="10"/><line y2="15" x2="0" y1="0" x1="15"/><line y2="20" x2="0" y1="0" x1="20"/><line y2="20" x2="5" y1="5" x1="20"/><line y2="20" x2="10" y1="10" x1="20"/><line y2="20" x2="15" y1="15" x1="20"/></g></pattern><pattern height="100" width="100" y="0" x="0" patternUnits="userSpaceOnUse" id="gridpattern"><image height="100" width="100" y="0" x="0"/></pattern></defs><g><title>background</title><rect fill="#fff" id="canvas_background" height="482" width="642" y="-1" x="-1"/><g display="none" overflow="visible" y="0" x="0" height="100%" width="100%" id="canvasGrid"><rect fill="url(#gridpattern)" stroke-width="0" y="0" x="0" height="100%" width="100%"/></g></g><g><title>Layer 1</title><path data-shape="fhpath" d="m185.5,238c14,16 20.743362,66.418945 129,68c18.025848,0.263275 40.418457,-16.631683 52,-37c8.910889,-15.671494 9.975037,-36.860031 0,-53c-8.921967,-14.43602 -37.20636,-31.861679 -72,-37c-28.705902,-4.239273 -57.40477,1.698441 -67,15c-14.246445,19.749405 -10.021744,54.965057 -1,78c12.893463,32.920502 37.429108,58.424255 65,69c35.553009,13.637573 78,12 103,11l29,-6l19,-6" id="svg_1" stroke-width="1.5" stroke="#000" fill="none"/></g></svg>